<?xml version="1.0" encoding="utf-8"?>
<!-- Generator: Adobe Illustrator 22.0.1, SVG Export Plug-In . SVG Version: 6.00 Build 0)  -->
<svg version="1.1" id="Layer_1" xmlns="http://www.w3.org/2000/svg" xmlns:xlink="http://www.w3.org/1999/xlink" x="0px" y="0px"
	 viewBox="0 0 152.6 177.2" style="enable-background:new 0 0 152.6 177.2;" xml:space="preserve">
<style type="text/css">
	.st0{fill:url(#SVGID_1_);}
	.st1{fill:url(#SVGID_2_);}
	.st2{fill:url(#SVGID_3_);}
	.st3{fill:url(#SVGID_4_);}
	.st4{fill:url(#SVGID_5_);}
	.st5{fill:url(#SVGID_6_);}
	.st6{fill:url(#SVGID_7_);}
	.st7{fill:url(#SVGID_8_);}
	.st8{fill:url(#SVGID_9_);}
	.st9{fill:url(#SVGID_10_);}
	.st10{fill:url(#SVGID_11_);}
	.st11{fill:url(#SVGID_12_);}
	.st12{fill:url(#SVGID_13_);}
	.st13{fill:url(#SVGID_14_);}
	.st14{fill:url(#SVGID_15_);}
	.st15{fill:url(#SVGID_16_);}
	.st16{fill:url(#SVGID_17_);}
	.st17{fill:url(#SVGID_18_);}
	.st18{fill:url(#SVGID_19_);}
	.st19{fill:url(#SVGID_20_);}
	.st20{fill:url(#SVGID_21_);}
	.st21{fill:url(#SVGID_22_);}
	.st22{fill:url(#SVGID_23_);}
	.st23{fill:url(#SVGID_24_);}
	.st24{fill:url(#SVGID_25_);}
	.st25{fill:url(#SVGID_26_);}
	.st26{fill:url(#SVGID_27_);}
	.st27{fill:url(#SVGID_28_);}
	.st28{fill:url(#SVGID_29_);}
	.st29{fill:url(#SVGID_30_);}
</style>
<g>
	<g>
		<linearGradient id="SVGID_1_" gradientUnits="userSpaceOnUse" x1="26.6551" y1="91.7859" x2="33.101" y2="91.7859">
			<stop  offset="0" style="stop-color:#723BC7"/>
			<stop  offset="0.1845" style="stop-color:#624CCF"/>
			<stop  offset="0.5495" style="stop-color:#3A78E3"/>
			<stop  offset="1" style="stop-color:#00B6FF"/>
		</linearGradient>
		<path class="st0" d="M30.1,88.3c-1.8,0-3.3,1.5-3.5,3.5c-0.1,1.9,1.2,3.5,3,3.5s3.3-1.5,3.5-3.5C33.2,89.9,31.9,88.3,30.1,88.3
			L30.1,88.3z"/>
		<linearGradient id="SVGID_2_" gradientUnits="userSpaceOnUse" x1="0" y1="95.5435" x2="138.6736" y2="95.5435">
			<stop  offset="0" style="stop-color:#723BC7"/>
			<stop  offset="0.1845" style="stop-color:#624CCF"/>
			<stop  offset="0.5495" style="stop-color:#3A78E3"/>
			<stop  offset="1" style="stop-color:#00B6FF"/>
		</linearGradient>
		<path class="st1" d="M135.7,55.4h-35.3l2.7-38.1c0.1-1.9-1.2-3.5-3-3.5c-10.5,0-20.4,4.2-28.2,11.1c-14.3,0.3-28.2,6.4-39.2,17.3
			c-11.3,11.2-18.1,26-19.1,41.6c-0.3,3.6-3.7,10.2-9.2,17.7c-5.1,6.9-4.8,11.8-3.6,14.7c1.2,3,4.6,6.6,13.3,7.3l-1.1,15.1
			c-0.7,10.2,6.5,18.6,16.1,18.6c8.4,0,13,0.3,14.8,2.2c1.8,1.8,2.1,6.3,2,14.6c0,1.8,1.3,3.2,3,3.2H95c0.9,0,1.8-0.4,2.4-1.1
			c0.7-0.7,1-1.6,1-2.6c0.1-6.7,0.2-11.6,0.6-16c0.1-1.9-1.2-3.5-2.9-3.5c0,0,0,0,0,0c-1.8,0-3.3,1.5-3.5,3.4
			c-0.3,3.7-0.5,7.7-0.5,12.8H52.3c0-7.5-0.6-12.8-3.9-16.1c-3.6-3.6-9.5-3.9-18.9-3.9c-6.1,0-10.6-5.2-10.2-11.7l0.3-4.6
			c2,0,4.9,1.1,7.8,3c0.5,0.3,1,0.5,1.6,0.5c1.1,0,2.2-0.6,2.9-1.7c1-1.7,0.6-3.8-0.8-4.7c-2.3-1.5-6.7-3.9-11-3.9l0.5-6.9
			c0.1-1.9-1.2-3.5-3-3.5c-6,0-10.1-1.4-11-3.7c-0.7-1.6,0.3-4.4,2.6-7.5c4.6-6.3,10.2-15.1,10.7-21.7c1.8-26,21.3-47.6,45-51.4
			c-5.5,7.4-9.1,16.5-9.8,26.4c-1.7,24.8,15.6,45,38.6,45c7.5,0,14.7-2.1,21.1-5.9c-1.5,4.5-3.6,8.8-6.2,12.9
			c-3.4,5.2-6.1,10.1-8.3,14.9c-0.8,1.8-0.2,3.8,1.4,4.5c0.4,0.2,0.8,0.3,1.2,0.3c1.3,0,2.5-0.8,3.1-2.1c2-4.4,4.5-9,7.7-13.9
			c4.5-7,7.6-14.6,9.2-22.7c8.8-8.2,14.8-20,15.7-33C138.8,56.9,137.5,55.4,135.7,55.4L135.7,55.4z M94.2,96.9
			c-19.5,0-34.2-17.1-32.7-38.1C62.9,39,78.2,22.7,96.3,20.9l-2.6,37.9c-0.1,1.9,1.2,3.5,3,3.5h35.2
			C128.9,81.7,112.6,96.9,94.2,96.9z"/>
		<linearGradient id="SVGID_3_" gradientUnits="userSpaceOnUse" x1="107.4899" y1="24.2319" x2="152.6019" y2="24.2319">
			<stop  offset="0" style="stop-color:#723BC7"/>
			<stop  offset="0.1845" style="stop-color:#624CCF"/>
			<stop  offset="0.5495" style="stop-color:#3A78E3"/>
			<stop  offset="1" style="stop-color:#00B6FF"/>
		</linearGradient>
		<path class="st2" d="M113.9,0c-1.8,0-3.3,1.5-3.5,3.5L107.5,45c-0.1,1.9,1.2,3.5,3,3.5H149c1.8,0,3.3-1.5,3.5-3.5
			C154.2,20.2,136.9,0,113.9,0z M114.2,41.5l2.4-34.5c16.8,1.7,29.3,16.2,29.6,34.5H114.2z"/>
		<linearGradient id="SVGID_4_" gradientUnits="userSpaceOnUse" x1="94.8346" y1="142.0124" x2="101.2802" y2="142.0124">
			<stop  offset="0" style="stop-color:#723BC7"/>
			<stop  offset="0.1845" style="stop-color:#624CCF"/>
			<stop  offset="0.5495" style="stop-color:#3A78E3"/>
			<stop  offset="1" style="stop-color:#00B6FF"/>
		</linearGradient>
		<path class="st3" d="M98.3,138.6L98.3,138.6c-1.8,0-3.3,1.5-3.5,3.5c-0.1,1.9,1.2,3.5,3,3.5c1.8,0,3.3-1.5,3.5-3.5
			C101.4,140.1,100.1,138.6,98.3,138.6z"/>
	</g>
</g>
</svg>
