<?xml version="1.0" encoding="utf-8"?>
<!-- Generator: Adobe Illustrator 22.0.1, SVG Export Plug-In . SVG Version: 6.00 Build 0)  -->
<svg version="1.1" id="Layer_1" xmlns="http://www.w3.org/2000/svg" xmlns:xlink="http://www.w3.org/1999/xlink" x="0px" y="0px"
	 viewBox="0 0 152.6 177.2" style="enable-background:new 0 0 152.6 177.2;" xml:space="preserve">
<style type="text/css">
	.st0{fill:url(#SVGID_1_);}
	.st1{fill:url(#SVGID_2_);}
	.st2{fill:url(#SVGID_3_);}
	.st3{fill:url(#SVGID_4_);}
	.st4{fill:url(#SVGID_5_);}
	.st5{fill:url(#SVGID_6_);}
	.st6{fill:url(#SVGID_7_);}
	.st7{fill:url(#SVGID_8_);}
	.st8{fill:url(#SVGID_9_);}
	.st9{fill:url(#SVGID_10_);}
	.st10{fill:url(#SVGID_11_);}
	.st11{fill:url(#SVGID_12_);}
	.st12{fill:url(#SVGID_13_);}
	.st13{fill:url(#SVGID_14_);}
	.st14{fill:url(#SVGID_15_);}
	.st15{fill:url(#SVGID_16_);}
	.st16{fill:url(#SVGID_17_);}
	.st17{fill:url(#SVGID_18_);}
	.st18{fill:url(#SVGID_19_);}
	.st19{fill:url(#SVGID_20_);}
	.st20{fill:url(#SVGID_21_);}
	.st21{fill:url(#SVGID_22_);}
	.st22{fill:url(#SVGID_23_);}
	.st23{fill:url(#SVGID_24_);}
	.st24{fill:url(#SVGID_25_);}
	.st25{fill:url(#SVGID_26_);}
	.st26{fill:url(#SVGID_27_);}
	.st27{fill:url(#SVGID_28_);}
	.st28{fill:url(#SVGID_29_);}
	.st29{fill:url(#SVGID_30_);}
</style>
<g>
	<linearGradient id="SVGID_1_" gradientUnits="userSpaceOnUse" x1="74.8846" y1="154.0833" x2="80.374" y2="154.0833">
		<stop  offset="0" style="stop-color:#723BC7"/>
		<stop  offset="0.1845" style="stop-color:#624CCF"/>
		<stop  offset="0.5495" style="stop-color:#3A78E3"/>
		<stop  offset="1" style="stop-color:#00B6FF"/>
	</linearGradient>
	<path class="st0" d="M78,151.1c1.5,0,2.6,1.3,2.4,3c-0.2,1.6-1.6,3-3.1,3s-2.6-1.3-2.4-3C75.1,152.4,76.5,151.1,78,151.1z"/>
	<linearGradient id="SVGID_2_" gradientUnits="userSpaceOnUse" x1="85.7659" y1="154.0833" x2="91.2553" y2="154.0833">
		<stop  offset="0" style="stop-color:#723BC7"/>
		<stop  offset="0.1845" style="stop-color:#624CCF"/>
		<stop  offset="0.5495" style="stop-color:#3A78E3"/>
		<stop  offset="1" style="stop-color:#00B6FF"/>
	</linearGradient>
	<path class="st1" d="M88.9,151.1c1.5,0,2.6,1.3,2.4,3c-0.2,1.6-1.6,3-3.1,3s-2.6-1.3-2.4-3C86,152.4,87.4,151.1,88.9,151.1z"/>
	<linearGradient id="SVGID_3_" gradientUnits="userSpaceOnUse" x1="96.6472" y1="154.0833" x2="102.1367" y2="154.0833">
		<stop  offset="0" style="stop-color:#723BC7"/>
		<stop  offset="0.1845" style="stop-color:#624CCF"/>
		<stop  offset="0.5495" style="stop-color:#3A78E3"/>
		<stop  offset="1" style="stop-color:#00B6FF"/>
	</linearGradient>
	<path class="st2" d="M99.8,151.1c1.5,0,2.6,1.3,2.4,3c-0.2,1.6-1.6,3-3.1,3s-2.6-1.3-2.4-3C96.9,152.4,98.3,151.1,99.8,151.1z"/>
	<linearGradient id="SVGID_4_" gradientUnits="userSpaceOnUse" x1="76.3354" y1="97.7836" x2="81.8249" y2="97.7836">
		<stop  offset="0" style="stop-color:#723BC7"/>
		<stop  offset="0.1845" style="stop-color:#624CCF"/>
		<stop  offset="0.5495" style="stop-color:#3A78E3"/>
		<stop  offset="1" style="stop-color:#00B6FF"/>
	</linearGradient>
	<path class="st3" d="M79.4,94.8c1.5,0,2.6,1.3,2.4,3c-0.2,1.6-1.6,3-3.1,3s-2.6-1.3-2.4-3C76.6,96.1,77.9,94.8,79.4,94.8z"/>
	<linearGradient id="SVGID_5_" gradientUnits="userSpaceOnUse" x1="85.7659" y1="65.1891" x2="91.2553" y2="65.1891">
		<stop  offset="0" style="stop-color:#723BC7"/>
		<stop  offset="0.1845" style="stop-color:#624CCF"/>
		<stop  offset="0.5495" style="stop-color:#3A78E3"/>
		<stop  offset="1" style="stop-color:#00B6FF"/>
	</linearGradient>
	<path class="st4" d="M88.9,62.2c1.5,0,2.6,1.3,2.4,3c-0.2,1.6-1.6,3-3.1,3s-2.6-1.3-2.4-3C86,63.6,87.4,62.2,88.9,62.2z"/>
	<linearGradient id="SVGID_6_" gradientUnits="userSpaceOnUse" x1="96.6472" y1="65.1891" x2="102.1367" y2="65.1891">
		<stop  offset="0" style="stop-color:#723BC7"/>
		<stop  offset="0.1845" style="stop-color:#624CCF"/>
		<stop  offset="0.5495" style="stop-color:#3A78E3"/>
		<stop  offset="1" style="stop-color:#00B6FF"/>
	</linearGradient>
	<path class="st5" d="M99.8,62.2c1.5,0,2.6,1.3,2.4,3s-1.6,3-3.1,3s-2.6-1.3-2.4-3S98.3,62.2,99.8,62.2z"/>
	<linearGradient id="SVGID_7_" gradientUnits="userSpaceOnUse" x1="91.932" y1="59.2628" x2="97.4214" y2="59.2628">
		<stop  offset="0" style="stop-color:#723BC7"/>
		<stop  offset="0.1845" style="stop-color:#624CCF"/>
		<stop  offset="0.5495" style="stop-color:#3A78E3"/>
		<stop  offset="1" style="stop-color:#00B6FF"/>
	</linearGradient>
	<path class="st6" d="M95,56.3c1.5,0,2.6,1.3,2.4,3c-0.2,1.6-1.6,3-3.1,3s-2.6-1.3-2.4-3C92.2,57.6,93.5,56.3,95,56.3z"/>
	<linearGradient id="SVGID_8_" gradientUnits="userSpaceOnUse" x1="98.0981" y1="53.3365" x2="103.5875" y2="53.3365">
		<stop  offset="0" style="stop-color:#723BC7"/>
		<stop  offset="0.1845" style="stop-color:#624CCF"/>
		<stop  offset="0.5495" style="stop-color:#3A78E3"/>
		<stop  offset="1" style="stop-color:#00B6FF"/>
	</linearGradient>
	<path class="st7" d="M101.2,50.4c1.5,0,2.6,1.3,2.4,3c-0.2,1.6-1.6,3-3.1,3s-2.6-1.3-2.4-3C98.3,51.7,99.7,50.4,101.2,50.4z"/>
	<linearGradient id="SVGID_9_" gradientUnits="userSpaceOnUse" x1="84.315" y1="77.0416" x2="89.8045" y2="77.0416">
		<stop  offset="0" style="stop-color:#723BC7"/>
		<stop  offset="0.1845" style="stop-color:#624CCF"/>
		<stop  offset="0.5495" style="stop-color:#3A78E3"/>
		<stop  offset="1" style="stop-color:#00B6FF"/>
	</linearGradient>
	<path class="st8" d="M87.4,74.1c1.5,0,2.6,1.3,2.4,3c-0.2,1.6-1.6,3-3.1,3s-2.6-1.3-2.4-3C84.5,75.4,85.9,74.1,87.4,74.1z"/>
	<linearGradient id="SVGID_10_" gradientUnits="userSpaceOnUse" x1="79.5998" y1="71.1154" x2="85.0892" y2="71.1154">
		<stop  offset="0" style="stop-color:#723BC7"/>
		<stop  offset="0.1845" style="stop-color:#624CCF"/>
		<stop  offset="0.5495" style="stop-color:#3A78E3"/>
		<stop  offset="1" style="stop-color:#00B6FF"/>
	</linearGradient>
	<path class="st9" d="M82.7,68.2c1.5,0,2.6,1.3,2.4,3c-0.2,1.6-1.6,3-3.1,3s-2.6-1.3-2.4-3C79.8,69.5,81.2,68.2,82.7,68.2z"/>
	<linearGradient id="SVGID_11_" gradientUnits="userSpaceOnUse" x1="90.4811" y1="71.1154" x2="95.9706" y2="71.1154">
		<stop  offset="0" style="stop-color:#723BC7"/>
		<stop  offset="0.1845" style="stop-color:#624CCF"/>
		<stop  offset="0.5495" style="stop-color:#3A78E3"/>
		<stop  offset="1" style="stop-color:#00B6FF"/>
	</linearGradient>
	<path class="st10" d="M93.6,68.2c1.5,0,2.6,1.3,2.4,3c-0.2,1.6-1.6,3-3.1,3s-2.6-1.3-2.4-3C90.7,69.5,92.1,68.2,93.6,68.2z"/>
	<linearGradient id="SVGID_12_" gradientUnits="userSpaceOnUse" x1="75.2473" y1="106.673" x2="80.7367" y2="106.673">
		<stop  offset="0" style="stop-color:#723BC7"/>
		<stop  offset="0.1845" style="stop-color:#624CCF"/>
		<stop  offset="0.5495" style="stop-color:#3A78E3"/>
		<stop  offset="1" style="stop-color:#00B6FF"/>
	</linearGradient>
	<path class="st11" d="M78.4,103.7c1.5,0,2.6,1.3,2.4,3c-0.2,1.6-1.6,3-3.1,3s-2.6-1.3-2.4-3C75.5,105,76.9,103.7,78.4,103.7z"/>
	<linearGradient id="SVGID_13_" gradientUnits="userSpaceOnUse" x1="74.1591" y1="115.5625" x2="79.6486" y2="115.5625">
		<stop  offset="0" style="stop-color:#723BC7"/>
		<stop  offset="0.1845" style="stop-color:#624CCF"/>
		<stop  offset="0.5495" style="stop-color:#3A78E3"/>
		<stop  offset="1" style="stop-color:#00B6FF"/>
	</linearGradient>
	<path class="st12" d="M77.3,112.6c1.5,0,2.6,1.3,2.4,3c-0.2,1.6-1.6,3-3.1,3s-2.6-1.3-2.4-3S75.8,112.6,77.3,112.6z"/>
	<linearGradient id="SVGID_14_" gradientUnits="userSpaceOnUse" x1="73.071" y1="124.4519" x2="78.5605" y2="124.4519">
		<stop  offset="0" style="stop-color:#723BC7"/>
		<stop  offset="0.1845" style="stop-color:#624CCF"/>
		<stop  offset="0.5495" style="stop-color:#3A78E3"/>
		<stop  offset="1" style="stop-color:#00B6FF"/>
	</linearGradient>
	<path class="st13" d="M76.2,121.5c1.5,0,2.6,1.3,2.4,3s-1.6,3-3.1,3s-2.6-1.3-2.4-3C73.3,122.8,74.7,121.5,76.2,121.5z"/>
	<linearGradient id="SVGID_15_" gradientUnits="userSpaceOnUse" x1="71.9829" y1="133.3413" x2="77.4723" y2="133.3413">
		<stop  offset="0" style="stop-color:#723BC7"/>
		<stop  offset="0.1845" style="stop-color:#624CCF"/>
		<stop  offset="0.5495" style="stop-color:#3A78E3"/>
		<stop  offset="1" style="stop-color:#00B6FF"/>
	</linearGradient>
	<path class="st14" d="M75.1,130.4c1.5,0,2.6,1.3,2.4,3s-1.6,3-3.1,3s-2.6-1.3-2.4-3S73.6,130.4,75.1,130.4z"/>
	<linearGradient id="SVGID_16_" gradientUnits="userSpaceOnUse" x1="70.8947" y1="142.2307" x2="76.3842" y2="142.2307">
		<stop  offset="0" style="stop-color:#723BC7"/>
		<stop  offset="0.1845" style="stop-color:#624CCF"/>
		<stop  offset="0.5495" style="stop-color:#3A78E3"/>
		<stop  offset="1" style="stop-color:#00B6FF"/>
	</linearGradient>
	<path class="st15" d="M74,139.3c1.5,0,2.6,1.3,2.4,3c-0.2,1.6-1.6,3-3.1,3s-2.6-1.3-2.4-3S72.5,139.3,74,139.3z"/>
	<linearGradient id="SVGID_17_" gradientUnits="userSpaceOnUse" x1="81.0506" y1="148.157" x2="86.5401" y2="148.157">
		<stop  offset="0" style="stop-color:#723BC7"/>
		<stop  offset="0.1845" style="stop-color:#624CCF"/>
		<stop  offset="0.5495" style="stop-color:#3A78E3"/>
		<stop  offset="1" style="stop-color:#00B6FF"/>
	</linearGradient>
	<path class="st16" d="M84.2,145.2c1.5,0,2.6,1.3,2.4,3c-0.2,1.6-1.6,3-3.1,3s-2.6-1.3-2.4-3C81.3,146.5,82.7,145.2,84.2,145.2z"/>
	<linearGradient id="SVGID_18_" gradientUnits="userSpaceOnUse" x1="91.932" y1="148.157" x2="97.4214" y2="148.157">
		<stop  offset="0" style="stop-color:#723BC7"/>
		<stop  offset="0.1845" style="stop-color:#624CCF"/>
		<stop  offset="0.5495" style="stop-color:#3A78E3"/>
		<stop  offset="1" style="stop-color:#00B6FF"/>
	</linearGradient>
	<path class="st17" d="M95,145.2c1.5,0,2.6,1.3,2.4,3c-0.2,1.6-1.6,3-3.1,3s-2.6-1.3-2.4-3C92.2,146.5,93.5,145.2,95,145.2z"/>
	<linearGradient id="SVGID_19_" gradientUnits="userSpaceOnUse" x1="45.8677" y1="35.5577" x2="64.9588" y2="35.5577">
		<stop  offset="0" style="stop-color:#723BC7"/>
		<stop  offset="0.1845" style="stop-color:#624CCF"/>
		<stop  offset="0.5495" style="stop-color:#3A78E3"/>
		<stop  offset="1" style="stop-color:#00B6FF"/>
	</linearGradient>
	<path class="st18" d="M62.6,32.6H49c-1.5,0-2.9,1.3-3.1,3c-0.2,1.6,0.9,3,2.4,3h13.6c1.5,0,2.9-1.3,3.1-3
		C65.1,33.9,64.1,32.6,62.6,32.6z"/>
	<linearGradient id="SVGID_20_" gradientUnits="userSpaceOnUse" x1="29.727" y1="56.2997" x2="62.4199" y2="56.2997">
		<stop  offset="0" style="stop-color:#723BC7"/>
		<stop  offset="0.1845" style="stop-color:#624CCF"/>
		<stop  offset="0.5495" style="stop-color:#3A78E3"/>
		<stop  offset="1" style="stop-color:#00B6FF"/>
	</linearGradient>
	<path class="st19" d="M60,53.3H32.8c-1.5,0-2.9,1.3-3.1,3c-0.2,1.6,0.9,3,2.4,3h27.2c1.5,0,2.9-1.3,3.1-3
		C62.6,54.7,61.5,53.3,60,53.3z"/>
	<linearGradient id="SVGID_21_" gradientUnits="userSpaceOnUse" x1="13.5864" y1="77.0416" x2="59.8809" y2="77.0416">
		<stop  offset="0" style="stop-color:#723BC7"/>
		<stop  offset="0.1845" style="stop-color:#624CCF"/>
		<stop  offset="0.5495" style="stop-color:#3A78E3"/>
		<stop  offset="1" style="stop-color:#00B6FF"/>
	</linearGradient>
	<path class="st20" d="M57.5,74.1H16.7c-1.5,0-2.9,1.3-3.1,3c-0.2,1.6,0.9,3,2.4,3h40.8c1.5,0,2.9-1.3,3.1-3
		C60.1,75.4,59,74.1,57.5,74.1z"/>
	<linearGradient id="SVGID_22_" gradientUnits="userSpaceOnUse" x1="0.1661" y1="97.7836" x2="57.3419" y2="97.7836">
		<stop  offset="0" style="stop-color:#723BC7"/>
		<stop  offset="0.1845" style="stop-color:#624CCF"/>
		<stop  offset="0.5495" style="stop-color:#3A78E3"/>
		<stop  offset="1" style="stop-color:#00B6FF"/>
	</linearGradient>
	<path class="st21" d="M55,94.8H3.3c-1.5,0-2.9,1.3-3.1,3c-0.2,1.6,0.9,3,2.4,3h51.7c1.5,0,2.9-1.3,3.1-3
		C57.5,96.1,56.5,94.8,55,94.8z"/>
	<linearGradient id="SVGID_23_" gradientUnits="userSpaceOnUse" x1="13.9491" y1="118.5256" x2="54.8029" y2="118.5256">
		<stop  offset="0" style="stop-color:#723BC7"/>
		<stop  offset="0.1845" style="stop-color:#624CCF"/>
		<stop  offset="0.5495" style="stop-color:#3A78E3"/>
		<stop  offset="1" style="stop-color:#00B6FF"/>
	</linearGradient>
	<path class="st22" d="M52.4,115.6H17.1c-1.5,0-2.9,1.3-3.1,3c-0.2,1.6,0.9,3,2.4,3h35.4c1.5,0,2.9-1.3,3.1-3
		C55,116.9,53.9,115.6,52.4,115.6z"/>
	<linearGradient id="SVGID_24_" gradientUnits="userSpaceOnUse" x1="27.7321" y1="139.2676" x2="52.264" y2="139.2676">
		<stop  offset="0" style="stop-color:#723BC7"/>
		<stop  offset="0.1845" style="stop-color:#624CCF"/>
		<stop  offset="0.5495" style="stop-color:#3A78E3"/>
		<stop  offset="1" style="stop-color:#00B6FF"/>
	</linearGradient>
	<path class="st23" d="M49.9,136.3h-19c-1.5,0-2.9,1.3-3.1,3c-0.2,1.6,0.9,3,2.4,3h19c1.5,0,2.9-1.3,3.1-3
		C52.4,137.6,51.4,136.3,49.9,136.3z"/>
	<linearGradient id="SVGID_25_" gradientUnits="userSpaceOnUse" x1="58.7439" y1="88.8942" x2="152.6019" y2="88.8942">
		<stop  offset="0" style="stop-color:#723BC7"/>
		<stop  offset="0.1845" style="stop-color:#624CCF"/>
		<stop  offset="0.5495" style="stop-color:#3A78E3"/>
		<stop  offset="1" style="stop-color:#00B6FF"/>
	</linearGradient>
	<path class="st24" d="M125.9,160h-13.6l2.2-17.8c2.8-22.5-6-42.8-22.6-53.3c19.2-10.5,32.9-30.8,35.7-53.3l2.2-17.8h13.6
		c4.5,0,8.6-4,9.2-8.9C153.1,4,150,0,145.5,0H82.9c-1.5,0-2.9,1.3-3.1,3c-0.2,1.6,0.9,3,2.4,3h62.6c1.5,0,2.6,1.3,2.4,3
		c-0.2,1.6-1.6,3-3.1,3h-13.6h-49c-1.5,0-2.9,1.3-3.1,3c-0.2,1.6,0.9,3,2.4,3h43.5l-2.2,17.8c-2.7,22.2-17.3,42.1-37.2,50.6
		c0,0,0,0,0,0c0,0,0,0,0,0c0,0-0.1,0-0.1,0.1c-0.3,0.1-0.6,0.3-0.9,0.6c-0.2,0.2-0.4,0.5-0.5,0.7c-0.1,0.1-0.1,0.1-0.2,0.2
		c0,0,0,0,0,0c-0.2,0.4-0.3,0.7-0.3,1.1c0,0.4,0,0.8,0.1,1.1c0,0,0,0,0,0c0.1,0.3,0.2,0.6,0.4,0.9c0.1,0.1,0.1,0.1,0.2,0.2
		c0.2,0.2,0.3,0.3,0.6,0.5c0,0,0.1,0.1,0.1,0.1c17.8,8.5,27.5,28.4,24.8,50.6l-2.2,17.8c0.2-1.6-0.9-3-2.4-3s-2.9,1.3-3.1,3h-5.4
		c0.2-1.6-0.9-3-2.4-3s-2.9,1.3-3.1,3h-5.4c0.2-1.6-0.9-3-2.4-3s-2.9,1.3-3.1,3h-5.4c0.2-1.6-0.9-3-2.4-3s-2.9,1.3-3.1,3h-5.4
		c-1.5,0-2.9,1.3-3.1,3c-0.2,1.6,0.9,3,2.4,3h49h13.6c1.5,0,2.6,1.3,2.4,3c-0.2,1.6-1.6,3-3.1,3H61.9c-1.5,0-2.9,1.3-3.1,3
		c-0.2,1.6,0.9,3,2.4,3h62.6c4.5,0,8.6-4,9.2-8.9C133.5,164,130.4,160,125.9,160z"/>
</g>
</svg>
